<?xml version="1.0" encoding="utf-8"?><svg viewBox="0 0 71 70" xmlns="http://www.w3.org/2000/svg" xmlns:xlink="http://www.w3.org/1999/xlink"><style>:root>svg{display:none}:root>svg:target{display:block}</style><svg fill="none" viewBox="0 0 60 60" id="cash" xmlns="http://www.w3.org/2000/svg"><path d="M40.073 38.48c-1.422 0-2.578-1.002-2.578-2.232 0-1.23 1.156-2.231 2.578-2.231 1.421 0 2.578 1 2.578 2.231a1.172 1.172 0 002.344 0c0-2.147-1.6-3.953-3.75-4.443v-.61a1.172 1.172 0 00-2.344 0v.61c-2.15.49-3.75 2.296-3.75 4.443 0 2.523 2.208 4.575 4.922 4.575 1.421 0 2.578 1.001 2.578 2.232 0 1.23-1.157 2.231-2.578 2.231-1.422 0-2.578-1-2.578-2.231a1.172 1.172 0 00-2.344 0c0 2.147 1.6 3.953 3.75 4.443v.506a1.172 1.172 0 002.344 0v-.506c2.15-.49 3.75-2.296 3.75-4.443 0-2.523-2.208-4.576-4.922-4.576z" fill="url(#apaint0_linear_1_710)"/><path d="M52.908 31.509a15.269 15.269 0 00-6.237-5.52 1.172 1.172 0 10-1.016 2.113c4.443 2.135 7.314 6.698 7.314 11.625 0 2.108-.52 4.198-1.503 6.045a1.172 1.172 0 102.07 1.101 15.265 15.265 0 001.776-7.146c0-2.925-.831-5.767-2.404-8.218z" fill="#2B7AF1"/><path d="M41.915 24.492h-.08a1.172 1.172 0 000 2.344h.075a1.172 1.172 0 00.006-2.344z" fill="url(#apaint1_linear_1_710)"/><path d="M34.5 51.352c-4.442-2.136-7.312-6.7-7.312-11.625 0-2.108.52-4.199 1.502-6.046a1.172 1.172 0 10-2.069-1.101 15.266 15.266 0 00-1.777 7.147c0 2.925.831 5.766 2.404 8.217a15.27 15.27 0 006.237 5.52 1.172 1.172 0 001.015-2.112z" fill="#2B7AF1"/><path d="M38.32 52.617h-.067a1.17 1.17 0 10-.011 2.344h.079a1.172 1.172 0 000-2.344z" fill="url(#apaint2_linear_1_710)"/><path d="M45.4 20.527a5.369 5.369 0 00-.521-.957h3.05a5.397 5.397 0 005.391-5.39 5.397 5.397 0 00-5.39-5.391h-9.385a5.36 5.36 0 00.947-3.047 5.397 5.397 0 00-5.39-5.39H5.39A5.397 5.397 0 000 5.742a5.397 5.397 0 005.39 5.39h9.385a5.36 5.36 0 00-.947 3.048c0 1.13.35 2.18.947 3.047h-3.056a5.397 5.397 0 00-5.39 5.39c0 1.707.798 3.23 2.04 4.219a5.382 5.382 0 000 8.437 5.382 5.382 0 000 8.438 5.382 5.382 0 00-2.04 4.219 5.397 5.397 0 005.39 5.39h13.81c3.638 3.892 8.814 6.328 14.55 6.328C51.062 59.648 60 50.711 60 39.727c0-9.143-6.191-16.866-14.6-19.2zm2.53-9.394a3.05 3.05 0 013.047 3.047 3.05 3.05 0 01-3.047 3.047H19.219a3.05 3.05 0 01-3.047-3.047 3.05 3.05 0 013.047-3.047h28.71zM5.39 8.789a3.05 3.05 0 01-3.046-3.047A3.05 3.05 0 015.39 2.695H34.1a3.05 3.05 0 013.047 3.047A3.05 3.05 0 0134.1 8.789H5.392zm6.33 10.781h28.71c.473 0 .925.11 1.33.306a20.056 20.056 0 00-1.68-.071 19.857 19.857 0 00-14.098 5.859H11.719a3.05 3.05 0 01-3.047-3.047 3.05 3.05 0 013.047-3.047zm0 8.438h12.26a19.865 19.865 0 00-3.013 6.094H11.72a3.05 3.05 0 01-3.047-3.047 3.05 3.05 0 013.047-3.047zm0 8.437h8.71a19.967 19.967 0 00-.073 6.094H11.72a3.05 3.05 0 01-3.047-3.047 3.05 3.05 0 013.047-3.047zm0 14.532a3.05 3.05 0 01-3.047-3.047 3.05 3.05 0 013.047-3.047h9.115a19.844 19.844 0 002.812 6.093H11.719zm28.36 6.328c-9.693 0-17.579-7.886-17.579-17.578 0-9.693 7.886-17.578 17.578-17.578 9.693 0 17.578 7.885 17.578 17.578 0 9.692-7.885 17.578-17.578 17.578z" fill="#2B7AF1"/><defs><linearGradient id="apaint0_linear_1_710" x1="35.151" y1="39.6" x2="44.997" y2="39.579" gradientUnits="userSpaceOnUse"><stop stop-color="#FF7A00"/><stop offset="1" stop-color="#FFB039"/></linearGradient><linearGradient id="apaint1_linear_1_710" x1="40.664" y1="25.664" x2="43.082" y2="25.654" gradientUnits="userSpaceOnUse"><stop stop-color="#FF7A00"/><stop offset="1" stop-color="#FFB039"/></linearGradient><linearGradient id="apaint2_linear_1_710" x1="37.075" y1="53.789" x2="39.493" y2="53.779" gradientUnits="userSpaceOnUse"><stop stop-color="#FF7A00"/><stop offset="1" stop-color="#FFB039"/></linearGradient></defs></svg><svg fill="none" viewBox="0 0 50 51" id="deal" xmlns="http://www.w3.org/2000/svg"><path d="M3.397 39.338a.737.737 0 00.732-.732.738.738 0 00-.215-.52.74.74 0 00-.517-.213.743.743 0 00-.52.214.742.742 0 00-.214.519c0 .192.08.38.215.517a.74.74 0 00.519.215z" fill="url(#bpaint0_linear_1_146)"/><path d="M48.78 20.862h-4.351c-.673 0-1.221.547-1.221 1.22v.348h-2.11c-.673 0-1.22.548-1.22 1.221v1.512h-11.48c-.635 0-1.23.248-1.68.697l-.31.311-.077-.077c-.53-.531-1.468-.933-2.185-.934H10.122v-1.51c0-.672-.547-1.22-1.22-1.22h-2.11v-.348c0-.673-.548-1.22-1.22-1.22H1.22c-.674 0-1.221.547-1.221 1.22v18.811c0 .673.547 1.22 1.22 1.22H5.57c.673 0 1.221-.547 1.221-1.22v-.348h2.11c.673 0 1.22-.548 1.22-1.22v-.592l.881.63a2.487 2.487 0 002.493 2.716l.053-.001a2.484 2.484 0 002.5 2.563l.054-.002a2.507 2.507 0 00.725 1.834c.47.47 1.1.73 1.775.73l.053-.002a2.485 2.485 0 002.5 2.563 2.62 2.62 0 001.866-.779l.173-.173c.407.238.871.366 1.356.366a2.66 2.66 0 001.898-.786l.222-.222c.342-.344.572-.759.69-1.197a2.67 2.67 0 001.264.314 2.66 2.66 0 001.898-.786l.222-.222a2.67 2.67 0 00.675-1.143c.424.27.917.414 1.434.414a2.66 2.66 0 001.897-.785l.222-.223c.373-.374.612-.833.719-1.315a2.682 2.682 0 002.891-.597l.221-.222a2.698 2.698 0 00.334-3.392l.74-.417v.726c0 .673.547 1.22 1.22 1.22h2.11v.349c0 .672.548 1.22 1.22 1.22h4.351c.674 0 1.221-.548 1.221-1.22V22.082c0-.673-.547-1.22-1.22-1.22zM5.326 40.649H1.465V22.327h3.862v18.322zm8.169-.035a1.03 1.03 0 01-.737-.299c-.42-.421-.398-1.128.049-1.577l.324-.325c.224-.225.518-.348.828-.348.284 0 .545.106.738.299.42.42.397 1.128-.05 1.576l-.324.326a1.162 1.162 0 01-.828.348zm2.554 2.562a1.03 1.03 0 01-.738-.3c-.42-.42-.398-1.128.05-1.576l.324-.326c.224-.224.518-.348.828-.348.284 0 .545.107.737.299.42.421.398 1.129-.049 1.577l-.325.325a1.162 1.162 0 01-.827.349zm2.553 2.561a1.03 1.03 0 01-.737-.298c-.42-.422-.398-1.129.049-1.577l.325-.326c.224-.225.518-.348.827-.348.284 0 .546.106.738.299.42.42.398 1.128-.05 1.577l-.324.325a1.162 1.162 0 01-.828.348zm3.381 2.214a1.164 1.164 0 01-.827.348 1.03 1.03 0 01-.738-.299c-.42-.42-.397-1.128.05-1.576l.324-.326c.224-.225.518-.348.828-.348.284 0 .545.106.738.299.42.42.397 1.128-.05 1.576l-.325.326zm15.783-6.578l-.222.223a1.206 1.206 0 01-.86.355c-.326 0-.632-.126-.86-.355L30.1 35.853a.733.733 0 00-1.037 1.034l4.871 4.888a1.23 1.23 0 010 1.733l-.221.222c-.229.23-.534.356-.86.356a1.2 1.2 0 01-.86-.356l-5.63-5.647a.732.732 0 10-1.038 1.034l4.357 4.37.024.025a1.229 1.229 0 010 1.733l-.221.222c-.229.23-.534.355-.86.355-.327 0-.633-.126-.86-.355l-6.137-6.156a.733.733 0 00-1.038 1.034l5.042 5.058a1.229 1.229 0 010 1.732l-.221.223a1.223 1.223 0 01-1.412.224c.28-.886.08-1.881-.604-2.568a2.49 2.49 0 00-1.775-.73l-.053.002a2.486 2.486 0 00-2.5-2.563h-.053a2.486 2.486 0 00-2.5-2.563l-.054.002a2.487 2.487 0 00-2.5-2.563c-.703 0-1.365.277-1.866.78l-.325.325c-.08.08-.152.163-.219.25l-1.428-1.022V35.19a.733.733 0 00-1.465 0v3.89H6.792V23.895h1.866v7.78a.732.732 0 101.465 0v-5.05h14.022c.327 0 .896.25 1.148.503l.081.081-5.196 5.212a2.958 2.958 0 00-.868 2.04 2.791 2.791 0 00.812 2.041 2.78 2.78 0 001.983.815c.787 0 1.53-.31 2.09-.873l1.778-1.783c.68.392 1.459.603 2.249.603 1.204 0 2.336-.47 3.186-1.324l.338-.34 6.021 6.041a1.229 1.229 0 010 1.732zm3.575-2.293v-6.722a.733.733 0 00-1.465 0v4.559l-1.765.996-5.331-5.35.794-.796a.733.733 0 00-1.038-1.034l-2.166 2.173a3.014 3.014 0 01-2.15.893 3.041 3.041 0 01-1.884-.656.733.733 0 00-.975.056l-2.204 2.211a1.48 1.48 0 01-1.053.442c-.363 0-.699-.136-.946-.384a1.34 1.34 0 01-.384-.98 1.5 1.5 0 01.44-1.033l6.541-6.56a.9.9 0 01.642-.267h11.48v2.215a.732.732 0 101.464 0v-4.948h1.866V39.08h-1.866zm7.193 1.569h-3.862V22.327h3.862v18.322z" fill="#2B7AF1"/><path d="M46.605 39.338c.192 0 .38-.078.517-.215a.74.74 0 00.214-.517.741.741 0 00-.214-.52.742.742 0 00-.517-.213.741.741 0 00-.519.214.738.738 0 00-.215.519.737.737 0 00.734.732z" fill="url(#bpaint1_linear_1_146)"/><path d="M25 24.038c1.51 0 2.99-.408 4.282-1.178a.733.733 0 00-.751-1.258 6.89 6.89 0 01-3.53.97c-3.816 0-6.92-3.114-6.92-6.943 0-3.828 3.104-6.943 6.92-6.943 3.814 0 6.918 3.115 6.918 6.943a6.954 6.954 0 01-.977 3.561.732.732 0 101.257.75 8.416 8.416 0 001.185-4.31c0-4.637-3.76-8.409-8.384-8.409-4.623 0-8.384 3.772-8.384 8.408 0 4.637 3.761 8.409 8.384 8.409z" fill="#2B7AF1"/><path d="M22.475 14.522v-.79a.732.732 0 10-1.465 0v.79a.732.732 0 101.465 0z" fill="url(#bpaint2_linear_1_146)"/><path d="M28.99 14.522v-.79a.732.732 0 10-1.465 0v.79a.732.732 0 101.465 0z" fill="url(#bpaint3_linear_1_146)"/><path d="M25 20c1.747 0 3.169-1.306 3.169-2.91a.733.733 0 00-1.465 0c0 .796-.765 1.444-1.704 1.444-.94 0-1.704-.648-1.704-1.444a.733.733 0 00-1.465 0c0 1.604 1.421 2.91 3.169 2.91z" fill="url(#bpaint4_linear_1_146)"/><path d="M37.198 11.307c2.757 0 5-2.249 5-5.013 0-.746-.165-1.454-.458-2.091l.627-.63A.733.733 0 0041.33 2.54l-.41.412a4.982 4.982 0 00-3.721-1.67c-2.757 0-5 2.249-5 5.013s2.243 5.013 5 5.013zm0-8.56c1.074 0 2.036.483 2.685 1.243l-2.685 2.694-1.56-1.566a.733.733 0 00-1.037 1.035l1.872 1.878c.194.194.451.3.725.3.275 0 .532-.106.726-.3l2.678-2.688a3.545 3.545 0 01-3.404 4.499 3.545 3.545 0 01-3.534-3.548 3.546 3.546 0 013.534-3.548z" fill="#2B7AF1"/><path d="M7.983 11.216l-.259 1.509c-.084.49.114.977.517 1.27a1.293 1.293 0 001.368.1l1.355-.713 1.354.712a1.305 1.305 0 001.369-.099c.403-.293.6-.78.517-1.27l-.259-1.509 1.096-1.068a1.29 1.29 0 00.328-1.332 1.291 1.291 0 00-1.048-.884l-1.515-.22-.677-1.373a1.292 1.292 0 00-1.165-.724 1.29 1.29 0 00-1.165.724L9.12 7.712l-1.514.22c-.493.072-.895.41-1.05.884-.153.474-.027.984.33 1.332l1.096 1.068zm1.73-2.11a.732.732 0 00.551-.401l.7-1.417.699 1.417a.733.733 0 00.551.401l1.564.227-1.132 1.103a.732.732 0 00-.21.648l.267 1.557-1.398-.735a.734.734 0 00-.682 0l-1.399.735.267-1.557a.732.732 0 00-.21-.648L8.149 9.333l1.564-.227z" fill="url(#bpaint5_linear_1_146)"/><defs><linearGradient id="bpaint0_linear_1_146" x1="2.663" y1="38.606" x2="4.129" y2="38.6" gradientUnits="userSpaceOnUse"><stop stop-color="#FF7A00"/><stop offset="1" stop-color="#FFB039"/></linearGradient><linearGradient id="bpaint1_linear_1_146" x1="45.871" y1="38.606" x2="47.336" y2="38.6" gradientUnits="userSpaceOnUse"><stop stop-color="#FF7A00"/><stop offset="1" stop-color="#FFB039"/></linearGradient><linearGradient id="bpaint2_linear_1_146" x1="21.01" y1="14.127" x2="22.475" y2="14.123" gradientUnits="userSpaceOnUse"><stop stop-color="#FF7A00"/><stop offset="1" stop-color="#FFB039"/></linearGradient><linearGradient id="bpaint3_linear_1_146" x1="27.525" y1="14.127" x2="28.991" y2="14.123" gradientUnits="userSpaceOnUse"><stop stop-color="#FF7A00"/><stop offset="1" stop-color="#FFB039"/></linearGradient><linearGradient id="bpaint4_linear_1_146" x1="21.831" y1="18.178" x2="28.17" y2="18.134" gradientUnits="userSpaceOnUse"><stop stop-color="#FF7A00"/><stop offset="1" stop-color="#FFB039"/></linearGradient><linearGradient id="bpaint5_linear_1_146" x1="6.493" y1="9.929" x2="15.436" y2="9.892" gradientUnits="userSpaceOnUse"><stop stop-color="#FF7A00"/><stop offset="1" stop-color="#FFB039"/></linearGradient></defs></svg><svg fill="none" viewBox="0 0 60 60" id="document" xmlns="http://www.w3.org/2000/svg"><g clip-path="url(#cclip0_1_744)"><path d="M53.32 0H17.695a3.52 3.52 0 00-3.515 3.516V7.6a1.165 1.165 0 00-.36.242L3.507 18.156a1.17 1.17 0 00-.34.828h-.003v37.5A3.52 3.52 0 006.68 60h35.625a3.52 3.52 0 003.515-3.516V52.5h7.5a3.52 3.52 0 003.516-3.516V3.516A3.52 3.52 0 0053.32 0zM35.464 7.5h-2.708a3.519 3.519 0 00-3.108-1.875 3.52 3.52 0 00-3.515 3.516v6.908a1.172 1.172 0 002.344 0V9.141a1.172 1.172 0 012.343 0v7.846a3.52 3.52 0 01-3.515 3.516 3.52 3.52 0 01-3.516-3.516V8.203c0-3.23 2.629-5.86 5.86-5.86A5.867 5.867 0 0135.463 7.5zM17.695 2.344h6.22A8.18 8.18 0 0021.477 7.5h-4.954V3.516c0-.647.526-1.172 1.172-1.172zM13.477 11.5v4.26c0 1.131-.92 2.052-2.051 2.052h-4.26l6.31-6.312zm41.015 37.483c0 .646-.525 1.172-1.172 1.172h-7.5V27.442a1.172 1.172 0 00-2.343 0v29.042c0 .646-.526 1.172-1.172 1.172H6.68a1.173 1.173 0 01-1.172-1.172V20.156h5.918a4.4 4.4 0 004.394-4.394V9.844h5.625v7.143c0 3.23 2.629 5.86 5.86 5.86 3.23 0 5.86-2.63 5.86-5.86V9.844h9.14c.646 0 1.172.526 1.172 1.172v7.05a1.172 1.172 0 002.343 0v-7.05A3.52 3.52 0 0042.305 7.5h-4.486a8.18 8.18 0 00-2.438-5.156h17.94c.646 0 1.171.525 1.171 1.172v45.468z" fill="#2B7AF1"/><path d="M12.43 39.786h24.125a1.172 1.172 0 000-2.344h-1.391v-4.578c0-.647-.525-1.172-1.172-1.172h-4.453v-2.707c0-.647-.525-1.172-1.172-1.172h-4.453v-1.942c0-.647-.525-1.172-1.172-1.172h-5.625c-.647 0-1.172.525-1.172 1.172v11.57H13.6v-11.57a1.172 1.172 0 00-2.344 0v12.743c0 .647.525 1.172 1.172 1.172zm20.39-5.75v3.406h-3.281v-3.406h3.28zm-5.625-3.879v7.285h-3.281v-7.285h3.28zm-8.906-3.114h3.28v10.399h-3.28V27.043z" fill="#2B7AF1"/><path d="M36.618 47.809h-24.25a1.172 1.172 0 000 2.344h24.25a1.172 1.172 0 000-2.344z" fill="url(#cpaint0_linear_1_744)"/><path d="M36.617 43.121h-19.5a1.172 1.172 0 000 2.344h19.5a1.172 1.172 0 000-2.344z" fill="url(#cpaint1_linear_1_744)"/><path d="M12.367 45.465c.308 0 .61-.125.828-.343.218-.218.344-.52.344-.829 0-.308-.126-.61-.344-.828a1.181 1.181 0 00-.828-.344c-.309 0-.611.126-.829.344a1.18 1.18 0 00-.343.828c0 .309.125.61.343.829.218.218.52.343.829.343z" fill="url(#cpaint2_linear_1_744)"/><path d="M36.617 52.496h-24.25a1.172 1.172 0 000 2.344h24.25a1.172 1.172 0 000-2.344z" fill="url(#cpaint3_linear_1_744)"/><path d="M44.648 21.582c-.308 0-.61.126-.828.344a1.18 1.18 0 00-.343.828c0 .308.125.61.343.829.218.218.52.343.828.343.309 0 .611-.125.829-.343a1.18 1.18 0 00.343-.829c0-.308-.125-.61-.343-.828a1.18 1.18 0 00-.829-.344z" fill="url(#cpaint4_linear_1_744)"/></g><defs><linearGradient id="cpaint0_linear_1_744" x1="11.195" y1="48.981" x2="37.739" y2="47.765" gradientUnits="userSpaceOnUse"><stop stop-color="#FF7A00"/><stop offset="1" stop-color="#FFB039"/></linearGradient><linearGradient id="cpaint1_linear_1_744" x1="15.945" y1="44.293" x2="37.763" y2="43.473" gradientUnits="userSpaceOnUse"><stop stop-color="#FF7A00"/><stop offset="1" stop-color="#FFB039"/></linearGradient><linearGradient id="cpaint2_linear_1_744" x1="11.195" y1="44.293" x2="13.539" y2="44.284" gradientUnits="userSpaceOnUse"><stop stop-color="#FF7A00"/><stop offset="1" stop-color="#FFB039"/></linearGradient><linearGradient id="cpaint3_linear_1_744" x1="11.195" y1="53.668" x2="37.739" y2="52.453" gradientUnits="userSpaceOnUse"><stop stop-color="#FF7A00"/><stop offset="1" stop-color="#FFB039"/></linearGradient><linearGradient id="cpaint4_linear_1_744" x1="43.477" y1="22.754" x2="45.821" y2="22.745" gradientUnits="userSpaceOnUse"><stop stop-color="#FF7A00"/><stop offset="1" stop-color="#FFB039"/></linearGradient><clipPath id="cclip0_1_744"><path fill="#fff" d="M0 0h60v60H0z"/></clipPath></defs></svg><svg viewBox="0 0 9 9" id="facebook" xmlns="http://www.w3.org/2000/svg"><path d="M8.5 1.91C8.5 1.16 7.84.5 7.09.5H1.41C.66.5 0 1.16 0 1.91v5.68C0 8.34.66 9 1.41 9h2.862V5.785H3.215v-1.41h1.057v-.572c0-.969.705-1.805 1.586-1.805h1.145v1.409H5.858c-.133 0-.265.132-.265.396v.573h1.41v1.41h-1.41V9h1.498C7.839 9 8.5 8.34 8.5 7.59V1.91z"/></svg><svg fill="none" viewBox="0 0 50 51" id="home" xmlns="http://www.w3.org/2000/svg"><g clip-path="url(#eclip0_3318_23)"><path d="M48.281 16.876h-.477L43.329 4.828a2.717 2.717 0 00-2.536-1.763H9.207A2.717 2.717 0 006.67 4.828L2.196 16.876H1.72A1.72 1.72 0 000 18.595v1.38a1.72 1.72 0 001.719 1.72h.254v16.053a.732.732 0 101.465 0V21.695h11.5c.643 0 1.248-.25 1.704-.706L25 12.63l8.358 8.359c.456.455 1.06.706 1.704.706h11.5v1.941a.732.732 0 101.465 0v-1.941h.254a1.72 1.72 0 001.72-1.72v-1.38a1.72 1.72 0 00-1.72-1.72zM8.044 5.338c.18-.483.647-.808 1.163-.808h31.586c.516 0 .983.325 1.163.808l4.285 11.538h-10.18l-9.357-9.357A2.393 2.393 0 0025 6.814c-.644 0-1.249.25-1.704.705l-9.356 9.357H3.759L8.044 5.338zm40.491 14.638c0 .14-.114.254-.254.254H35.062a.939.939 0 01-.668-.277l-8.876-8.876a.732.732 0 00-1.036 0l-8.876 8.876a.94.94 0 01-.668.277H1.718a.254.254 0 01-.253-.254v-1.381c0-.14.114-.254.254-.254h12.524c.194 0 .38-.078.518-.215l9.571-9.571A.938.938 0 0125 8.278a.94.94 0 01.668.277l9.571 9.571a.732.732 0 00.518.215h12.524c.14 0 .254.114.254.254v1.38z" fill="#2B7AF1"/><path d="M44.04 42.016a.732.732 0 00.732-.732V28.262a.732.732 0 00-.733-.732h-9.865a.732.732 0 00-.732.732v13.022c0 .404.328.732.732.732h9.865zm-.733-4.621h-3.468v-3.468h3.468v3.468zm-4.933 0h-3.467v-3.468h3.467v3.468zm4.933 3.156h-8.4V38.86h8.4v1.692zm0-8.089h-3.468v-3.467h3.468v3.467zm-4.933-3.467v3.467h-3.467v-3.467h3.467zM15.826 42.016a.732.732 0 00.732-.732V28.262a.732.732 0 00-.732-.732H5.96a.732.732 0 00-.733.732v13.022c0 .404.328.732.733.732h9.865zm-.733-4.621h-3.467v-3.468h3.467v3.468zm-4.932 0H6.693v-3.468h3.468v3.468zm4.932 3.156h-8.4V38.86h8.4v1.692zm0-8.089h-3.467v-3.467h3.467v3.467zm-4.932-3.467v3.467H6.693v-3.467h3.468z" fill="#2B7AF1"/><path d="M27.367 30.687h-4.735a.732.732 0 00-.732.732v3.157c0 .404.328.732.732.732h4.735a.732.732 0 00.733-.732v-3.157a.732.732 0 00-.733-.732zm-.732 3.156h-3.27v-1.692h3.27v1.692z" fill="url(#epaint0_linear_3318_23)"/><path d="M28.89 21.456a3.894 3.894 0 00-3.89-3.89 3.894 3.894 0 00-3.89 3.89A3.894 3.894 0 0025 25.345a3.894 3.894 0 003.89-3.89zm-6.314 0A2.427 2.427 0 0125 19.03a2.427 2.427 0 012.424 2.425A2.427 2.427 0 0125 23.88a2.427 2.427 0 01-2.424-2.424z" fill="url(#epaint1_linear_3318_23)"/><path d="M49.268 43.116h-1.24V27.063a.732.732 0 00-1.466 0v16.053H31.257V28.262a.732.732 0 00-.733-.732H19.476a.732.732 0 00-.733.732v14.854H3.438v-1.942a.732.732 0 00-1.465 0v1.942H.733A.732.732 0 000 43.85v3.354c0 .404.328.732.732.732h48.536a.732.732 0 00.732-.732V43.85a.732.732 0 00-.732-.733zm-29.06-5.342h1.044a.732.732 0 100-1.465h-1.044v-7.314h9.584v14.121h-9.584v-5.342zm28.327 8.696H1.465v-1.889h47.07v1.89z" fill="#2B7AF1"/></g><defs><linearGradient id="epaint0_linear_3318_23" x1="21.9" y1="32.997" x2="28.101" y2="32.964" gradientUnits="userSpaceOnUse"><stop stop-color="#FF7A00"/><stop offset="1" stop-color="#FFB039"/></linearGradient><linearGradient id="epaint1_linear_3318_23" x1="21.111" y1="21.456" x2="28.891" y2="21.424" gradientUnits="userSpaceOnUse"><stop stop-color="#FF7A00"/><stop offset="1" stop-color="#FFB039"/></linearGradient><clipPath id="eclip0_3318_23"><path fill="#fff" transform="translate(0 .5)" d="M0 0h50v50H0z"/></clipPath></defs></svg><svg viewBox="0 0 12 12" id="insta" xmlns="http://www.w3.org/2000/svg"><path d="M9.613.5H2.012C1.154.5.5 1.154.5 2.012v7.601c0 .858.654 1.512 1.512 1.512h7.601c.858 0 1.512-.654 1.512-1.512V2.012c0-.858-.654-1.512-1.512-1.512zM5.813 9C7.57 9 9 7.61 9 5.935c0-.286-.04-.613-.123-.858h.9v4.332a.41.41 0 01-.41.408h-7.11a.41.41 0 01-.408-.408V5.036h.94a3.11 3.11 0 00-.123.858C2.625 7.611 4.056 9 5.813 9zm0-1.226c-1.145 0-2.044-.899-2.044-2.002 0-1.104.9-2.003 2.043-2.003 1.145 0 2.044.9 2.044 2.003 0 1.144-.9 2.002-2.043 2.002zm3.923-4.373c0 .246-.205.45-.45.45H8.142a.454.454 0 01-.45-.45V2.298c0-.245.205-.45.45-.45h1.144c.245 0 .45.205.45.45v1.103z"/></svg><svg viewBox="0 0 15 12" id="mail" xmlns="http://www.w3.org/2000/svg"><path d="M14.502 0H.498a.509.509 0 00-.352.14A.47.47 0 000 .48v.964c0 .044.05.095.091.116l7.36 4.047c.02.01.041.016.063.015a.127.127 0 00.063-.016l7.138-4.042c.04-.022.147-.079.187-.105.048-.032.098-.06.098-.117V.479a.471.471 0 00-.146-.338.509.509 0 00-.352-.141zm.436 2.898a.13.13 0 00-.126 0l-4.04 2.289a.117.117 0 00-.028.185l4.04 4.191a.122.122 0 00.091.038.127.127 0 00.088-.035.118.118 0 00.037-.084v-6.48a.116.116 0 00-.017-.06.122.122 0 00-.045-.044zM9.609 5.955a.128.128 0 00-.154-.022l-1.62.917a.65.65 0 01-.625.004L5.785 6.07a.129.129 0 00-.146.016L.228 10.917a.116.116 0 00-.02.153.12.12 0 00.042.039.5.5 0 00.248.07h13.86a.128.128 0 00.07-.02.121.121 0 00.045-.052.115.115 0 00-.023-.13L9.609 5.956zm-5.161-.44a.12.12 0 00.04-.101.117.117 0 00-.02-.053.123.123 0 00-.042-.038l-4.24-2.33a.128.128 0 00-.17.044.116.116 0 00-.016.06v6.116c0 .023.007.046.02.065.013.02.032.035.054.045A.128.128 0 00.21 9.3l4.24-3.785z"/></svg><svg viewBox="0 0 9 12" id="marker" xmlns="http://www.w3.org/2000/svg"><path d="M4.5.464A4.302 4.302 0 00.203 4.76a4.254 4.254 0 00.866 2.578s.117.154.136.176L4.5 11.401l3.296-3.888c.018-.02.135-.174.135-.174v-.001a4.252 4.252 0 00.866-2.577A4.302 4.302 0 004.5.464zm1.406 6.25L4.5 5.819l-1.406.895.234-1.592-1.172-1.075 1.64-.198.704-1.432.747 1.432 1.597.198-1.172 1.075.234 1.592z"/></svg><svg fill="none" viewBox="0 0 71 70" id="marks" xmlns="http://www.w3.org/2000/svg"><path opacity=".9" fill-rule="evenodd" clip-rule="evenodd" d="M0 58.737c10.587-6.04 15.881-13.136 15.881-21.29-4.513-.604-8.244-2.743-11.195-6.417C1.736 27.355.26 23.102.26 18.27c0-5.133 1.432-9.462 4.296-12.985C7.42 1.762 11.021 0 15.36 0c4.86 0 9.07 2.29 12.627 6.87 3.559 4.58 5.338 10.142 5.338 16.685 0 19.63-9.46 34.98-28.379 46.054L0 58.737zm37.364 0c10.674-6.04 16.011-13.136 16.011-21.29-4.6-.604-8.374-2.743-11.325-6.417-2.95-3.675-4.426-7.928-4.426-12.76 0-5.133 1.454-9.462 4.361-12.985C44.892 1.762 48.515 0 52.855 0c4.86 0 9.047 2.29 12.561 6.87 3.515 4.58 5.273 10.142 5.273 16.685 0 19.63-9.416 34.98-28.248 46.054l-5.077-10.872z" fill="url(#ipaint0_linear_1_33)"/><defs><linearGradient id="ipaint0_linear_1_33" x1="70.689" y1="34.804" x2="-.013" y2="35.094" gradientUnits="userSpaceOnUse"><stop stop-color="#FF7A00"/><stop offset="1" stop-color="#FFB039"/></linearGradient></defs></svg><svg fill="none" viewBox="0 0 50 51" id="review" xmlns="http://www.w3.org/2000/svg"><g clip-path="url(#jclip0_3318_676)"><path d="M35.032 16.915a14.9 14.9 0 00-4.26.616c.054-.526.082-1.06.082-1.6 0-2.471-.568-4.833-1.686-7.019a.977.977 0 00-1.739.89 13.326 13.326 0 011.472 6.13c0 7.43-6.045 13.473-13.474 13.473a13.4 13.4 0 01-5.014-.964.977.977 0 00-1.054.216l-2.134 2.134v-3.698a.977.977 0 00-.356-.753 13.438 13.438 0 01-4.916-10.41c0-7.43 6.044-13.474 13.474-13.474a13.393 13.393 0 016.723 1.795.977.977 0 00.975-1.692A15.336 15.336 0 0015.427.504C6.92.505 0 7.426 0 15.932a15.38 15.38 0 005.272 11.614v5.603a.976.976 0 001.667.69l3.356-3.355c1.645.581 3.368.875 5.132.875 1.635 0 3.211-.256 4.691-.73-.035.417-.053.836-.053 1.254 0 2.286.502 4.48 1.492 6.523a.977.977 0 101.757-.852 12.89 12.89 0 01-1.297-5.67c0-.699.057-1.398.168-2.086a15.492 15.492 0 008.196-10.073 12.934 12.934 0 014.651-.856c7.177 0 13.015 5.838 13.015 13.015 0 3.986-1.791 7.7-4.915 10.186a.976.976 0 00-.368.764v4.329l-2.675-2.675a.977.977 0 00-.994-.237c-1.309.43-2.676.648-4.063.648a12.89 12.89 0 01-5.66-1.293.977.977 0 00-.852 1.758c2.04.987 4.23 1.487 6.512 1.487 1.39 0 2.764-.19 4.092-.567l3.926 3.926a.976.976 0 001.667-.69v-6.225A14.894 14.894 0 0050 31.882c0-8.253-6.715-14.967-14.968-14.967z" fill="#2B7AF1"/><path d="M25.969 41.223a8.169 8.169 0 01-.09-.088.976.976 0 00-1.374 1.387l.104.102a.973.973 0 001.38-.02.976.976 0 00-.02-1.381z" fill="url(#jpaint0_linear_3318_676)"/><path d="M26.748 5.451a.976.976 0 10-1.42 1.34.974.974 0 001.39.05.976.976 0 00.03-1.39z" fill="url(#jpaint1_linear_3318_676)"/><path d="M11.18 12.562a.982.982 0 00-.69-.286.984.984 0 00-.691.286.984.984 0 00-.286.69c0 .257.104.51.286.69a.983.983 0 00.69.287.98.98 0 00.69-1.667z" fill="url(#jpaint2_linear_3318_676)"/><path d="M21.055 12.562a.983.983 0 00-.69-.286.984.984 0 00-.692.286.982.982 0 00-.285.69c0 .257.104.51.285.69a.987.987 0 00.691.287.985.985 0 00.69-.286.983.983 0 00.287-.69.982.982 0 00-.286-.69z" fill="url(#jpaint3_linear_3318_676)"/><path d="M19.166 18.33a.976.976 0 00-1.196.691 2.637 2.637 0 01-2.543 1.955 2.637 2.637 0 01-2.543-1.955.976.976 0 10-1.887.504 4.592 4.592 0 004.43 3.404c2.073 0 3.894-1.4 4.43-3.404a.976.976 0 00-.691-1.195z" fill="#2B7AF1"/><path d="M30.95 28.58a.982.982 0 00-.69-.285.984.984 0 00-.691.285.984.984 0 00-.286.69c0 .259.104.51.286.691a.984.984 0 00.69.286.98.98 0 00.69-1.667z" fill="url(#jpaint4_linear_3318_676)"/><path d="M40.496 28.58a.982.982 0 00-.69-.285.983.983 0 00-.691.286.984.984 0 00-.286.69c0 .258.104.509.286.69a.983.983 0 00.69.286.983.983 0 00.69-.286.984.984 0 00.287-.69.984.984 0 00-.286-.69z" fill="url(#jpaint5_linear_3318_676)"/><path d="M30.718 35.344a4.472 4.472 0 004.314 3.315 4.472 4.472 0 004.314-3.315.976.976 0 10-1.887-.504 2.517 2.517 0 01-2.427 1.866 2.516 2.516 0 01-2.427-1.866.977.977 0 00-1.887.504z" fill="#2B7AF1"/></g><defs><linearGradient id="jpaint0_linear_3318_676" x1="24.216" y1="41.876" x2="26.265" y2="41.868" gradientUnits="userSpaceOnUse"><stop stop-color="#FF7A00"/><stop offset="1" stop-color="#FFB039"/></linearGradient><linearGradient id="jpaint1_linear_3318_676" x1="25.046" y1="6.119" x2="27.025" y2="6.111" gradientUnits="userSpaceOnUse"><stop stop-color="#FF7A00"/><stop offset="1" stop-color="#FFB039"/></linearGradient><linearGradient id="jpaint2_linear_3318_676" x1="9.513" y1="13.252" x2="11.466" y2="13.245" gradientUnits="userSpaceOnUse"><stop stop-color="#FF7A00"/><stop offset="1" stop-color="#FFB039"/></linearGradient><linearGradient id="jpaint3_linear_3318_676" x1="19.388" y1="13.252" x2="21.341" y2="13.245" gradientUnits="userSpaceOnUse"><stop stop-color="#FF7A00"/><stop offset="1" stop-color="#FFB039"/></linearGradient><linearGradient id="jpaint4_linear_3318_676" x1="29.283" y1="29.271" x2="31.236" y2="29.263" gradientUnits="userSpaceOnUse"><stop stop-color="#FF7A00"/><stop offset="1" stop-color="#FFB039"/></linearGradient><linearGradient id="jpaint5_linear_3318_676" x1="38.829" y1="29.271" x2="40.782" y2="29.263" gradientUnits="userSpaceOnUse"><stop stop-color="#FF7A00"/><stop offset="1" stop-color="#FFB039"/></linearGradient><clipPath id="jclip0_3318_676"><path fill="#fff" transform="translate(0 .5)" d="M0 0h50v50H0z"/></clipPath></defs></svg><svg fill="none" viewBox="0 0 60 60" id="security" xmlns="http://www.w3.org/2000/svg"><g clip-path="url(#kclip0_1_566)"><path d="M54.656 10.36C46.4 8.1 38.096 4.578 30.642.176a1.262 1.262 0 00-1.283 0c-7.67 4.528-15.525 7.86-24.015 10.186-.548.15-.928.648-.928 1.217v12.896c0 13.28 6.126 22.07 11.266 27.106C21.215 57.002 27.66 60 30 60s8.785-2.998 14.319-8.42c5.14-5.035 11.265-13.826 11.265-27.106V11.578c0-.569-.38-1.067-.928-1.217zM53.06 24.475c0 12.403-5.714 20.606-10.508 25.303-5.442 5.33-11.259 7.698-12.552 7.698-1.293 0-7.11-2.368-12.552-7.699C12.655 45.08 6.94 36.877 6.94 24.474V12.536C15.06 10.231 22.62 7.014 30 2.725c7.197 4.175 15.135 7.552 23.06 9.81v11.939z" fill="#2B7AF1"/><path d="M18.813 12.395a1.262 1.262 0 00-1.637-.712 102.699 102.699 0 01-6.878 2.43 1.262 1.262 0 00-.885 1.205v4.874a1.262 1.262 0 002.524 0V16.24c2.072-.67 4.142-1.411 6.164-2.208.649-.256.968-.989.712-1.637z" fill="#2B7AF1"/><path d="M21.21 12.634c.17 0 .342-.034.507-.106l.023-.01a1.26 1.26 0 00.646-1.661 1.265 1.265 0 00-1.665-.648l-.02.009a1.263 1.263 0 00.51 2.417z" fill="url(#kpaint0_linear_1_566)"/><path d="M45.038 40.697a1.263 1.263 0 00-1.747.366 30.715 30.715 0 01-3.628 4.53 32.24 32.24 0 01-3.62 3.222 1.262 1.262 0 001.53 2.007 34.792 34.792 0 003.905-3.474 33.221 33.221 0 003.926-4.904 1.262 1.262 0 00-.367-1.747z" fill="#2B7AF1"/><path d="M33.112 50.794l-.072.043a1.262 1.262 0 001.264 2.184l.084-.049a1.262 1.262 0 10-1.276-2.178z" fill="url(#kpaint1_linear_1_566)"/><path d="M21.397 27.424a4.076 4.076 0 00-2.902-1.202 4.078 4.078 0 00-2.902 1.202 4.11 4.11 0 000 5.804l7.453 7.453a4.078 4.078 0 002.902 1.201 4.078 4.078 0 002.902-1.201l15.558-15.558a4.109 4.109 0 000-5.804 4.077 4.077 0 00-2.903-1.202 4.078 4.078 0 00-2.902 1.202L25.948 31.974l-4.55-4.55zm18.991-6.32a1.57 1.57 0 011.117-.463 1.582 1.582 0 011.117 2.697L27.066 38.896a1.57 1.57 0 01-1.117.462 1.57 1.57 0 01-1.118-.462l-7.452-7.452a1.582 1.582 0 011.117-2.697c.422 0 .82.164 1.117.462l5.443 5.443a1.263 1.263 0 001.785 0l13.548-13.548z" fill="url(#kpaint2_linear_1_566)"/></g><defs><linearGradient id="kpaint0_linear_1_566" x1="19.946" y1="11.368" x2="22.494" y2="11.358" gradientUnits="userSpaceOnUse"><stop stop-color="#FF7A00"/><stop offset="1" stop-color="#FFB039"/></linearGradient><linearGradient id="kpaint1_linear_1_566" x1="32.41" y1="51.906" x2="35.013" y2="51.895" gradientUnits="userSpaceOnUse"><stop stop-color="#FF7A00"/><stop offset="1" stop-color="#FFB039"/></linearGradient><linearGradient id="kpaint2_linear_1_566" x1="14.393" y1="30" x2="45.613" y2="29.834" gradientUnits="userSpaceOnUse"><stop stop-color="#FF7A00"/><stop offset="1" stop-color="#FFB039"/></linearGradient><clipPath id="kclip0_1_566"><path fill="#fff" d="M0 0h60v60H0z"/></clipPath></defs></svg><svg fill="none" viewBox="0 0 16 15" id="star" xmlns="http://www.w3.org/2000/svg"><path d="M8 0l1.796 5.528h5.813l-4.703 3.416 1.796 5.528L8 11.056l-4.702 3.416 1.796-5.528L.392 5.528h5.812L8 0z" fill="url(#lpaint0_linear_1_416)"/><defs><linearGradient id="lpaint0_linear_1_416" x1="0" y1="8" x2="16.003" y2="7.935" gradientUnits="userSpaceOnUse"><stop stop-color="#FF7A00"/><stop offset="1" stop-color="#FFB039"/></linearGradient></defs></svg><svg viewBox="0 0 13 13" id="tel" xmlns="http://www.w3.org/2000/svg"><path d="M8.53 8.988l1.05-1.05a1.027 1.027 0 011.097-.225l1.28.511a1.022 1.022 0 01.637.938v2.343a1.017 1.017 0 01-1.069 1.008C2.558 11.955.75 4.362.406 1.455A1.017 1.017 0 011.424.325h2.264a1.013 1.013 0 01.937.638l.511 1.28a1.013 1.013 0 01-.22 1.097l-1.05 1.05S4.47 8.482 8.53 8.988z"/></svg><svg viewBox="0 0 11 9" id="telegram" xmlns="http://www.w3.org/2000/svg"><path d="M.675 4.187l2.3.857.896 2.884c.039.195.272.234.428.117l1.286-1.052c.117-.117.312-.117.468 0l2.299 1.675c.156.117.39.04.428-.156L10.495.33c.039-.194-.156-.39-.35-.311L.674 3.68c-.233.078-.233.428 0 .506zm3.079.429l4.52-2.767c.078-.039.156.078.078.117L4.65 5.434c-.117.117-.234.273-.234.468l-.117.935c0 .117-.195.156-.234 0l-.467-1.715c-.117-.194-.04-.428.156-.506z"/></svg><svg fill="none" viewBox="0 0 60 60" id="time" xmlns="http://www.w3.org/2000/svg"><g clip-path="url(#oclip0_1_642)"><path d="M59.884 32.772a23.717 23.717 0 00-6.816-14.385 23.532 23.532 0 00-11.576-6.356V9.053a3.99 3.99 0 003.022-3.866 3.989 3.989 0 00-3.984-3.984h-8.438a3.989 3.989 0 00-3.984 3.984 3.991 3.991 0 003.022 3.866v2.986a23.53 23.53 0 00-11.54 6.348c-.72.72-1.383 1.474-1.99 2.258-.03-.002-.059-.004-.089-.004h-8.35a1.172 1.172 0 000 2.344h6.845a23.49 23.49 0 00-2.08 4.504H1.172a1.172 1.172 0 000 2.344h12.092a23.828 23.828 0 00-.582 4.504H7.5a1.172 1.172 0 000 2.344h5.22c.099 1.517.342 3.026.731 4.505H5.86a1.172 1.172 0 000 2.343h8.34a23.533 23.533 0 005.391 8.336 23.716 23.716 0 0014.399 6.818 23.729 23.729 0 0015.24-3.703 1.172 1.172 0 00-1.279-1.964c-8.386 5.461-19.616 4.28-26.704-2.807-8.316-8.316-8.316-21.847 0-30.163 8.316-8.316 21.847-8.316 30.163 0 7.078 7.078 8.266 18.299 2.823 26.68a1.172 1.172 0 101.966 1.277 23.748 23.748 0 003.685-15.23zM30.451 5.187c0-.905.736-1.64 1.641-1.64h8.438c.904 0 1.64.735 1.64 1.64 0 .905-.736 1.64-1.64 1.64h-8.438c-.904 0-1.64-.735-1.64-1.64zm3.023 6.45V9.171h5.674v2.46a23.875 23.875 0 00-5.674.005z" fill="#2B7AF1"/><path d="M52.24 49.864a1.176 1.176 0 00-1.172 1.172 1.176 1.176 0 001.172 1.172c.308 0 .609-.124.828-.343a1.18 1.18 0 00.343-.829c0-.308-.125-.61-.343-.828a1.183 1.183 0 00-.828-.344z" fill="url(#opaint0_linear_1_642)"/><path d="M36.329 16.947c-10.024 0-18.18 8.155-18.18 18.18 0 10.023 8.156 18.179 18.18 18.179s18.18-8.156 18.18-18.18-8.156-18.18-18.18-18.18zm0 34.015c-8.732 0-15.836-7.104-15.836-15.836S27.597 19.29 36.33 19.29s15.836 7.104 15.836 15.836-7.104 15.836-15.836 15.836z" fill="url(#opaint1_linear_1_642)"/><path d="M43.742 26.056l-5.805 5.804a3.62 3.62 0 00-1.608-.375 3.62 3.62 0 00-1.609.375l-2.597-2.598a1.172 1.172 0 00-1.658 1.658l2.598 2.597a3.618 3.618 0 00-.376 1.609 3.646 3.646 0 003.642 3.642 3.646 3.646 0 003.641-3.642 3.62 3.62 0 00-.375-1.609l5.634-5.634.17-.17a1.172 1.172 0 10-1.657-1.657zm-7.413 10.368a1.3 1.3 0 01-1.298-1.298 1.3 1.3 0 011.298-1.298 1.3 1.3 0 011.297 1.298 1.3 1.3 0 01-1.297 1.298zm12.529-2.456h-1.085a1.172 1.172 0 000 2.344h1.085a1.172 1.172 0 000-2.343zm-23.973-.028h-1.086a1.172 1.172 0 000 2.344h1.086a1.172 1.172 0 000-2.344zm11.458-9.086c.647 0 1.172-.525 1.172-1.172v-1.086a1.172 1.172 0 00-2.344 0v1.086c0 .647.525 1.172 1.172 1.172zm-.028 20.544c-.648 0-1.172.525-1.172 1.172v1.086a1.172 1.172 0 002.343 0V46.57c0-.647-.524-1.172-1.171-1.172z" fill="#2B7AF1"/><path d="M1.172 41.185c-.308 0-.61.125-.829.343a1.18 1.18 0 00-.343.829 1.176 1.176 0 001.172 1.172c.308 0 .61-.126.828-.344a1.18 1.18 0 00.344-.828c0-.308-.126-.61-.344-.829a1.18 1.18 0 00-.828-.343z" fill="url(#opaint2_linear_1_642)"/></g><defs><linearGradient id="opaint0_linear_1_642" x1="51.068" y1="51.036" x2="53.412" y2="51.027" gradientUnits="userSpaceOnUse"><stop stop-color="#FF7A00"/><stop offset="1" stop-color="#FFB039"/></linearGradient><linearGradient id="opaint1_linear_1_642" x1="18.149" y1="35.126" x2="54.515" y2="34.979" gradientUnits="userSpaceOnUse"><stop stop-color="#FF7A00"/><stop offset="1" stop-color="#FFB039"/></linearGradient><linearGradient id="opaint2_linear_1_642" x1="0" y1="42.357" x2="2.344" y2="42.347" gradientUnits="userSpaceOnUse"><stop stop-color="#FF7A00"/><stop offset="1" stop-color="#FFB039"/></linearGradient><clipPath id="oclip0_1_642"><path fill="#fff" d="M0 0h60v60H0z"/></clipPath></defs></svg><svg viewBox="0 0 14 9" id="vk" xmlns="http://www.w3.org/2000/svg"><path d="M13.629 7.697c0-.052-.052-.052-.052-.104-.207-.415-.675-.934-1.297-1.505-.311-.259-.467-.467-.571-.57-.156-.208-.156-.364-.104-.571.052-.156.26-.415.623-.882.207-.26.311-.415.467-.571.778-1.038 1.141-1.712 1.038-2.024l-.052-.052c-.052-.051-.104-.103-.208-.103-.104-.052-.26-.052-.415 0h-2.335l-.052.052c-.052.051-.052.051-.052.103-.207.571-.467 1.038-.726 1.557-.156.26-.311.519-.467.726-.156.208-.26.364-.363.467-.104.104-.208.156-.26.26-.052.052-.155.104-.155.052-.052 0-.104 0-.104-.052l-.156-.156c-.052-.052-.052-.155-.104-.26V1.47c0-.052-.052-.155-.052-.207l-.155-.156c-.052-.052-.156-.052-.208-.104A4.654 4.654 0 006.935.9c-.83 0-1.4.051-1.608.155-.104.052-.208.104-.26.208-.104.104-.104.155-.052.155.26.052.467.156.571.312l.052.104c.052.051.052.155.104.31.052.157.052.312.052.52v.83c0 .26-.052.415-.052.57 0 .156-.052.26-.104.312-.052.104-.052.156-.104.156 0 0 0 .052-.052.052s-.103.052-.207.052a.393.393 0 01-.208-.104.625.625 0 01-.26-.26 1.81 1.81 0 01-.31-.467c-.104-.207-.26-.415-.364-.726L4.03 2.87a7.342 7.342 0 01-.259-.57c-.104-.26-.208-.467-.311-.727a.716.716 0 00-.156-.207h-.052s-.052-.052-.104-.052-.103-.052-.155-.052H1.124c-.208 0-.312.052-.364.104l-.052.051v.104c0 .052 0 .104.052.208.26.622.571 1.245.883 1.868.31.57.622 1.09.83 1.453.26.363.467.726.726 1.037.26.312.415.52.467.623l.208.208.155.155c.104.104.26.26.467.415.208.156.467.312.727.467.26.156.57.26.882.364.363.103.675.155.986.103h.778c.156 0 .26-.051.363-.155l.052-.052c0-.052.052-.052.052-.104v-.207c0-.208 0-.364.052-.52.052-.155.052-.259.104-.363a.725.725 0 01.156-.207l.103-.104h.052c.104-.052.26 0 .363.104.156.104.312.26.416.415.103.156.259.311.467.519.207.207.363.363.467.415l.155.104c.104.052.208.104.364.155.155.052.259.052.363.052l1.764-.052a.978.978 0 00.415-.103c.104-.052.156-.104.156-.208v-.207c-.104-.104-.104-.156-.104-.208z"/></svg></svg>