<svg width="12" height="12" viewBox="0 0 12 12"  xmlns="http://www.w3.org/2000/svg">
<path d="M9.61298 0.5H2.01202C1.15384 0.5 0.5 1.15385 0.5 2.01202V9.61298C0.5 10.4712 1.15384 11.125 2.01202 11.125H9.61298C10.4712 11.125 11.125 10.4712 11.125 9.61298V2.01202C11.125 1.15385 10.4712 0.5 9.61298 0.5ZM5.8125 9C7.56971 9 9 7.61058 9 5.9351C9 5.64904 8.95914 5.32212 8.8774 5.07692H9.77644V9.40865C9.77644 9.61298 9.61298 9.81731 9.36779 9.81731H2.25721C2.05289 9.81731 1.84856 9.65385 1.84856 9.40865V5.03606H2.78846C2.70673 5.32211 2.66587 5.60817 2.66587 5.89423C2.625 7.61058 4.05529 9 5.8125 9ZM5.8125 7.77404C4.66827 7.77404 3.76923 6.875 3.76923 5.77164C3.76923 4.66827 4.66827 3.76923 5.8125 3.76923C6.95673 3.76923 7.85577 4.66827 7.85577 5.77164C7.85577 6.91587 6.95673 7.77404 5.8125 7.77404ZM9.73558 3.40144C9.73558 3.64663 9.53125 3.85096 9.28606 3.85096H8.14183C7.89663 3.85096 7.69231 3.64663 7.69231 3.40144V2.29808C7.69231 2.05288 7.89663 1.84856 8.14183 1.84856H9.28606C9.53125 1.84856 9.73558 2.05288 9.73558 2.29808V3.40144Z" />
</svg>
