<svg width="15" height="12" viewBox="0 0 15 12"  xmlns="http://www.w3.org/2000/svg">
<path d="M14.5021 0H0.497922C0.365879 0.000148955 0.239291 0.0507149 0.14594 0.1406C0.0525895 0.230485 0.000103109 0.352346 0 0.479438V1.44394C0 1.48837 0.0500649 1.53938 0.090974 1.56L7.45188 5.60681C7.47074 5.61718 7.49211 5.62255 7.51383 5.62237C7.53603 5.62243 7.55783 5.61673 7.57695 5.60587L14.7154 1.56394C14.7555 1.54238 14.8619 1.48538 14.9018 1.45913C14.9501 1.42744 15 1.39875 15 1.34194V0.47925C14.9998 0.352191 14.9473 0.230378 14.854 0.140534C14.7606 0.0506892 14.6341 0.000148869 14.5021 0Z" />
<path d="M14.9379 2.89818C14.9187 2.88766 14.897 2.88219 14.875 2.88233C14.8529 2.88246 14.8313 2.88819 14.8122 2.89893L10.7726 5.18662C10.7565 5.19565 10.7427 5.20805 10.7322 5.2229C10.7218 5.23776 10.715 5.25468 10.7123 5.27242C10.7095 5.29016 10.711 5.30826 10.7166 5.32538C10.7221 5.3425 10.7316 5.3582 10.7443 5.37131L14.7846 9.56324C14.7961 9.57535 14.8102 9.585 14.8259 9.59159C14.8415 9.59817 14.8585 9.60155 14.8755 9.60149C14.9085 9.60145 14.9402 9.58881 14.9635 9.56635C14.9868 9.54389 15 9.51344 15 9.48168V3.00225C15.0001 2.98117 14.9944 2.96044 14.9835 2.94217C14.9726 2.9239 14.9568 2.90872 14.9379 2.89818Z" />
<path d="M9.60861 5.95486C9.58943 5.93475 9.56367 5.92159 9.53563 5.91757C9.50758 5.91354 9.47895 5.91889 9.45452 5.93273L7.8353 6.84979C7.74043 6.90255 7.63293 6.93066 7.52337 6.93135C7.41381 6.93204 7.30594 6.90529 7.21036 6.85373L5.78536 6.07017C5.76236 6.05756 5.73578 6.05232 5.70947 6.05522C5.68317 6.05812 5.65851 6.069 5.63906 6.08629L0.227766 10.9174C0.21358 10.9302 0.202688 10.946 0.195958 10.9635C0.189228 10.981 0.186847 10.9998 0.189004 11.0184C0.191161 11.037 0.197797 11.0548 0.208382 11.0705C0.218967 11.0862 0.233209 11.0992 0.249974 11.1087C0.334129 11.1563 0.415363 11.179 0.497961 11.179H14.3589C14.3832 11.179 14.4069 11.1722 14.4272 11.1594C14.4474 11.1465 14.4633 11.1283 14.4729 11.1068C14.4826 11.0855 14.4856 11.0618 14.4815 11.0389C14.4774 11.0159 14.4664 10.9946 14.4499 10.9776L9.60861 5.95486Z" />
<path d="M4.44818 5.51497C4.46251 5.50222 4.47353 5.4864 4.48034 5.46879C4.48715 5.45119 4.48956 5.43228 4.48738 5.41361C4.4852 5.39494 4.47849 5.37703 4.46779 5.36132C4.45709 5.3456 4.4427 5.33253 4.42578 5.32316L0.185651 2.99216C0.166728 2.98182 0.145316 2.97644 0.123557 2.97656C0.101797 2.97669 0.0804517 2.98231 0.0616565 2.99286C0.0428612 3.00342 0.0272743 3.01854 0.0164545 3.03671C0.00563481 3.05488 -3.84727e-05 3.07547 1.98637e-06 3.09641V9.21266C-0.000135307 9.23602 0.00684717 9.2589 0.0200851 9.27848C0.033323 9.29806 0.0522352 9.31347 0.0744809 9.32281C0.0967266 9.33215 0.121329 9.33501 0.145244 9.33102C0.169158 9.32704 0.191334 9.3164 0.209028 9.30041L4.44818 5.51497Z" />
</svg>
