<svg width="9" height="12" viewBox="0 0 9 12"  xmlns="http://www.w3.org/2000/svg">
<path d="M4.5 0.463806C3.36082 0.46515 2.26867 0.918287 1.46314 1.72382C0.65761 2.52935 0.204474 3.62149 0.20313 4.76068C0.201765 5.69163 0.505856 6.59731 1.06875 7.33881C1.06875 7.33881 1.18594 7.4931 1.20508 7.51537L4.5 11.4013L7.79649 7.51342C7.81368 7.49271 7.93126 7.33881 7.93126 7.33881L7.93165 7.33763C8.49426 6.59647 8.79822 5.6912 8.79688 4.76068C8.79554 3.62149 8.3424 2.52935 7.53687 1.72382C6.73134 0.918287 5.63919 0.46515 4.5 0.463806ZM5.90626 6.71381L4.5 5.81888L3.09375 6.71381L3.32813 5.1224L2.15625 4.04701L3.79688 3.84896L4.5 2.41693L5.24688 3.84935L6.84375 4.04701L5.67188 5.1224L5.90626 6.71381Z" />
</svg>
