<svg width="13" height="13" viewBox="0 0 13 13"  xmlns="http://www.w3.org/2000/svg">
<path d="M8.52983 8.9882L9.57983 7.9382C9.72125 7.79854 9.90018 7.70293 10.0949 7.66299C10.2896 7.62305 10.4917 7.64049 10.6767 7.7132L11.9564 8.22414C12.1433 8.30002 12.3036 8.42954 12.4171 8.59638C12.5305 8.76321 12.592 8.9599 12.5939 9.16164V11.5054C12.5928 11.6426 12.564 11.7782 12.5091 11.904C12.4542 12.0298 12.3744 12.1432 12.2746 12.2374C12.1747 12.3315 12.0569 12.4045 11.9281 12.4519C11.7993 12.4993 11.6622 12.5202 11.5251 12.5132C2.55795 11.9554 0.748577 4.36164 0.406389 1.45539C0.390504 1.31267 0.405018 1.16821 0.448974 1.0315C0.49293 0.894799 0.565334 0.768949 0.66142 0.662235C0.757507 0.555521 0.8751 0.470361 1.00646 0.412358C1.13783 0.354354 1.27998 0.324821 1.42358 0.325703H3.68764C3.88967 0.326301 4.08691 0.387328 4.25398 0.500935C4.42105 0.614542 4.55031 0.775534 4.62514 0.963203L5.13608 2.24289C5.21119 2.42714 5.23036 2.62944 5.19118 2.82452C5.15199 3.0196 5.0562 3.19881 4.91576 3.33977L3.86576 4.38977C3.86576 4.38977 4.47045 8.48195 8.52983 8.9882Z" />
</svg>
