<svg width="11" height="9" viewBox="0 0 11 9"  xmlns="http://www.w3.org/2000/svg">
<path d="M0.675351 4.18716L2.9744 5.04443L3.87063 7.92797C3.9096 8.12281 4.1434 8.16177 4.29927 8.04487L5.58517 6.99277C5.70207 6.87587 5.89691 6.87587 6.05277 6.99277L8.35181 8.66834C8.50768 8.78524 8.74148 8.70731 8.78045 8.51247L10.495 0.32945C10.534 0.134616 10.3391 -0.0602162 10.1443 0.0177173L0.675351 3.6806C0.44155 3.75853 0.44155 4.10923 0.675351 4.18716ZM3.75374 4.6158L8.27387 1.84915C8.35181 1.81019 8.42975 1.92709 8.35181 1.96606L4.64997 5.4341C4.53307 5.551 4.41616 5.70687 4.41616 5.9017L4.29927 6.8369C4.29927 6.9538 4.10443 6.99277 4.06547 6.8369L3.59786 5.12236C3.48096 4.92753 3.5589 4.69373 3.75374 4.6158Z" />
</svg>
