<svg width="14" height="9" viewBox="0 0 14 9"  xmlns="http://www.w3.org/2000/svg">
<path d="M13.6289 7.69703C13.6289 7.64514 13.5771 7.64515 13.5771 7.59326C13.3695 7.17814 12.9025 6.65925 12.2798 6.08847C11.9685 5.82902 11.8128 5.62146 11.709 5.51768C11.5534 5.31013 11.5534 5.15446 11.6053 4.94691C11.6572 4.79124 11.8647 4.53178 12.2279 4.06478C12.4355 3.80533 12.5393 3.64967 12.6949 3.494C13.4733 2.45622 13.8365 1.78165 13.7327 1.47031L13.6808 1.41843C13.6289 1.36654 13.577 1.31465 13.4733 1.31465C13.3695 1.26276 13.2138 1.26276 13.0582 1.31465H11.0864C11.0345 1.31465 11.0345 1.31465 10.9307 1.31465C10.8788 1.31465 10.8269 1.31465 10.8269 1.31465H10.775H10.7231L10.6712 1.36654C10.6194 1.41843 10.6194 1.41842 10.6194 1.47031C10.4118 2.0411 10.1524 2.5081 9.89291 3.02699C9.73724 3.28644 9.58157 3.54589 9.42591 3.75345C9.27024 3.96101 9.16645 4.11667 9.06267 4.22045C8.95889 4.32423 8.85512 4.37612 8.80323 4.4799C8.75134 4.53179 8.64757 4.58368 8.64757 4.53179C8.59568 4.53179 8.54378 4.53179 8.54378 4.4799C8.49189 4.42801 8.44001 4.37612 8.38812 4.32423C8.33623 4.27234 8.33622 4.16856 8.28433 4.06478C8.28433 3.961 8.28433 3.85722 8.28433 3.80533C8.28433 3.75344 8.28433 3.59778 8.28433 3.494C8.28433 3.33833 8.28433 3.23455 8.28433 3.18266C8.28433 3.027 8.28433 2.81944 8.28433 2.61189C8.28433 2.40433 8.28433 2.24866 8.28433 2.14488C8.28433 2.0411 8.28433 1.88543 8.28433 1.78165C8.28433 1.62599 8.28433 1.5222 8.28433 1.47031C8.28433 1.41842 8.23246 1.31465 8.23246 1.26276C8.18057 1.21087 8.12867 1.15898 8.07678 1.10709C8.02489 1.0552 7.92111 1.0552 7.86923 1.00331C7.60978 0.951424 7.29845 0.899536 6.93522 0.899536C6.10499 0.899536 5.53421 0.951427 5.32665 1.05521C5.22287 1.1071 5.11909 1.15898 5.0672 1.26276C4.96343 1.36654 4.96342 1.41843 5.01531 1.41843C5.27476 1.47032 5.48232 1.57409 5.5861 1.72976L5.63799 1.83355C5.68988 1.88543 5.68987 1.98921 5.74176 2.14488C5.79365 2.30054 5.79365 2.45621 5.79365 2.66377C5.79365 2.97511 5.79365 3.28645 5.79365 3.494C5.79365 3.75345 5.74176 3.90911 5.74176 4.06478C5.74176 4.22045 5.68988 4.32423 5.63799 4.37612C5.5861 4.4799 5.58609 4.53179 5.53421 4.53179C5.53421 4.53179 5.5342 4.58367 5.48231 4.58367C5.43042 4.58367 5.37854 4.63557 5.27476 4.63557C5.22287 4.63557 5.11909 4.58368 5.0672 4.53179C4.96343 4.4799 4.85965 4.37612 4.80776 4.27234C4.70398 4.16856 4.6002 4.01289 4.49642 3.80533C4.39264 3.59778 4.23697 3.39022 4.13319 3.07889L4.02942 2.87133C3.97753 2.76755 3.87375 2.55999 3.76997 2.30055C3.66619 2.0411 3.56241 1.83355 3.45863 1.5741C3.40674 1.47032 3.35486 1.41843 3.30297 1.36654H3.25108C3.25108 1.36654 3.19918 1.31465 3.14729 1.31465C3.0954 1.31465 3.04352 1.26276 2.99163 1.26276H1.12361C0.916055 1.26276 0.812278 1.31465 0.760389 1.36654L0.708496 1.41843C0.708496 1.41843 0.708496 1.47032 0.708496 1.52221C0.708496 1.5741 0.708499 1.62598 0.760389 1.72976C1.01984 2.35243 1.33117 2.97511 1.64251 3.59778C1.95384 4.16856 2.26518 4.68746 2.47274 5.05068C2.73218 5.41391 2.93974 5.77713 3.19919 6.08847C3.45863 6.39981 3.6143 6.60736 3.66619 6.71114C3.76996 6.81492 3.82185 6.8668 3.87374 6.91869L4.02942 7.07436C4.1332 7.17814 4.28886 7.33381 4.49642 7.48948C4.70398 7.64515 4.96342 7.80081 5.22287 7.95648C5.48231 8.11215 5.79366 8.21593 6.10499 8.31971C6.46822 8.42349 6.77955 8.47538 7.09089 8.42349H7.86923C8.02489 8.42349 8.12868 8.3716 8.23246 8.26782L8.28433 8.21593C8.28433 8.16404 8.33623 8.16404 8.33623 8.11215C8.33623 8.06026 8.33623 8.00837 8.33623 7.9046C8.33623 7.69704 8.33623 7.54137 8.38812 7.3857C8.44001 7.23003 8.44001 7.12626 8.4919 7.02248C8.54379 6.9187 8.59568 6.86681 8.64757 6.81492C8.69945 6.76303 8.75135 6.71114 8.75135 6.71114H8.80323C8.90701 6.65925 9.06268 6.71114 9.16646 6.81492C9.32213 6.9187 9.47779 7.07436 9.58157 7.23003C9.68535 7.3857 9.84103 7.54137 10.0486 7.74893C10.2561 7.95648 10.4118 8.11215 10.5156 8.16404L10.6712 8.26782C10.775 8.31971 10.8788 8.3716 11.0345 8.42349C11.1901 8.47538 11.2939 8.47537 11.3977 8.47537L13.1619 8.42349C13.3176 8.42349 13.4733 8.3716 13.5771 8.31971C13.6808 8.26782 13.7327 8.21593 13.7327 8.11215C13.7327 8.06026 13.7327 7.95649 13.7327 7.9046C13.6289 7.80082 13.6289 7.74892 13.6289 7.69703Z" />
</svg>
