<svg width="50" height="51" fill="none" xmlns="http://www.w3.org/2000/svg"><g clip-path="url(#clip0_3318_23)"><path d="M48.281 16.876h-.477L43.329 4.828a2.717 2.717 0 00-2.536-1.763H9.207A2.717 2.717 0 006.67 4.828L2.196 16.876H1.72A1.72 1.72 0 000 18.595v1.38a1.72 1.72 0 001.719 1.72h.254v16.053a.732.732 0 101.465 0V21.695h11.5c.643 0 1.248-.25 1.704-.706L25 12.63l8.358 8.359c.456.455 1.06.706 1.704.706h11.5v1.941a.732.732 0 101.465 0v-1.941h.254a1.72 1.72 0 001.72-1.72v-1.38a1.72 1.72 0 00-1.72-1.72zM8.044 5.338c.18-.483.647-.808 1.163-.808h31.586c.516 0 .983.325 1.163.808l4.285 11.538h-10.18l-9.357-9.357A2.393 2.393 0 0025 6.814c-.644 0-1.249.25-1.704.705l-9.356 9.357H3.759L8.044 5.338zm40.491 14.638c0 .14-.114.254-.254.254H35.062a.939.939 0 01-.668-.277l-8.876-8.876a.732.732 0 00-1.036 0l-8.876 8.876a.94.94 0 01-.668.277H1.718a.254.254 0 01-.253-.254v-1.381c0-.14.114-.254.254-.254h12.524c.194 0 .38-.078.518-.215l9.571-9.571A.938.938 0 0125 8.278a.94.94 0 01.668.277l9.571 9.571a.732.732 0 00.518.215h12.524c.14 0 .254.114.254.254v1.38z" fill="#2B7AF1"/><path d="M44.04 42.016a.732.732 0 00.732-.732V28.262a.732.732 0 00-.733-.732h-9.865a.732.732 0 00-.732.732v13.022c0 .404.328.732.732.732h9.865zm-.733-4.621h-3.468v-3.468h3.468v3.468zm-4.933 0h-3.467v-3.468h3.467v3.468zm4.933 3.156h-8.4V38.86h8.4v1.692zm0-8.089h-3.468v-3.467h3.468v3.467zm-4.933-3.467v3.467h-3.467v-3.467h3.467zM15.826 42.016a.732.732 0 00.732-.732V28.262a.732.732 0 00-.732-.732H5.96a.732.732 0 00-.733.732v13.022c0 .404.328.732.733.732h9.865zm-.733-4.621h-3.467v-3.468h3.467v3.468zm-4.932 0H6.693v-3.468h3.468v3.468zm4.932 3.156h-8.4V38.86h8.4v1.692zm0-8.089h-3.467v-3.467h3.467v3.467zm-4.932-3.467v3.467H6.693v-3.467h3.468z" fill="#2B7AF1"/><path d="M27.367 30.687h-4.735a.732.732 0 00-.732.732v3.157c0 .404.328.732.732.732h4.735a.732.732 0 00.733-.732v-3.157a.732.732 0 00-.733-.732zm-.732 3.156h-3.27v-1.692h3.27v1.692z" fill="url(#paint0_linear_3318_23)"/><path d="M28.89 21.456a3.894 3.894 0 00-3.89-3.89 3.894 3.894 0 00-3.89 3.89A3.894 3.894 0 0025 25.345a3.894 3.894 0 003.89-3.89zm-6.314 0A2.427 2.427 0 0125 19.03a2.427 2.427 0 012.424 2.425A2.427 2.427 0 0125 23.88a2.427 2.427 0 01-2.424-2.424z" fill="url(#paint1_linear_3318_23)"/><path d="M49.268 43.116h-1.24V27.063a.732.732 0 00-1.466 0v16.053H31.257V28.262a.732.732 0 00-.733-.732H19.476a.732.732 0 00-.733.732v14.854H3.438v-1.942a.732.732 0 00-1.465 0v1.942H.733A.732.732 0 000 43.85v3.354c0 .404.328.732.732.732h48.536a.732.732 0 00.732-.732V43.85a.732.732 0 00-.732-.733zm-29.06-5.342h1.044a.732.732 0 100-1.465h-1.044v-7.314h9.584v14.121h-9.584v-5.342zm28.327 8.696H1.465v-1.889h47.07v1.89z" fill="#2B7AF1"/></g><defs><linearGradient id="paint0_linear_3318_23" x1="21.9" y1="32.997" x2="28.101" y2="32.964" gradientUnits="userSpaceOnUse"><stop stop-color="#FF7A00"/><stop offset="1" stop-color="#FFB039"/></linearGradient><linearGradient id="paint1_linear_3318_23" x1="21.111" y1="21.456" x2="28.891" y2="21.424" gradientUnits="userSpaceOnUse"><stop stop-color="#FF7A00"/><stop offset="1" stop-color="#FFB039"/></linearGradient><clipPath id="clip0_3318_23"><path fill="#fff" transform="translate(0 .5)" d="M0 0h50v50H0z"/></clipPath></defs></svg>