<svg width="71" height="70" fill="none" xmlns="http://www.w3.org/2000/svg"><path opacity=".9" fill-rule="evenodd" clip-rule="evenodd" d="M0 58.737c10.587-6.04 15.881-13.136 15.881-21.29-4.513-.604-8.244-2.743-11.195-6.417C1.736 27.355.26 23.102.26 18.27c0-5.133 1.432-9.462 4.296-12.985C7.42 1.762 11.021 0 15.36 0c4.86 0 9.07 2.29 12.627 6.87 3.559 4.58 5.338 10.142 5.338 16.685 0 19.63-9.46 34.98-28.379 46.054L0 58.737zm37.364 0c10.674-6.04 16.011-13.136 16.011-21.29-4.6-.604-8.374-2.743-11.325-6.417-2.95-3.675-4.426-7.928-4.426-12.76 0-5.133 1.454-9.462 4.361-12.985C44.892 1.762 48.515 0 52.855 0c4.86 0 9.047 2.29 12.561 6.87 3.515 4.58 5.273 10.142 5.273 16.685 0 19.63-9.416 34.98-28.248 46.054l-5.077-10.872z" fill="url(#paint0_linear_1_33)"/><defs><linearGradient id="paint0_linear_1_33" x1="70.689" y1="34.804" x2="-.013" y2="35.094" gradientUnits="userSpaceOnUse"><stop stop-color="#FF7A00"/><stop offset="1" stop-color="#FFB039"/></linearGradient></defs></svg>